# xmcd
#
# Track frame offsets: 
#        150
#        11815
#        23522
#        37030
#        49027
#        62642
#        75367
#        88202
#        100647
#        114972
#        128662
#        141872
#        153495
#        168277
#        182492
#        197962
#
# Disc length: 2820 seconds
#
# Revision: 0
# Processed by: cddbd v1.5.1PL0 Copyright (c) Steve Scherf et al.
# Submitted via: ExactAudioCopy v0.95a5
#
DISCID=c40b0210
DTITLE=Gary Stewart - Country Legends
DYEAR=2004
DGENRE=Country
TTITLE0=Sweet-Tater and Cisco
TTITLE1=Ramblin' Man
TTITLE2=Drinkin' Thing
TTITLE3=I See the Want to In Your Eyes
TTITLE4=Out of Hand
TTITLE5=She's Actin' Single (I'm Drinkin' Doubles)
TTITLE6=You're Not the Woman You Used to Be
TTITLE7=Flat Natural Born Good-Timin' Man
TTITLE8=In Some Room Above the Street
TTITLE9=Your Place or Mine
TTITLE10=The Blue Ribbon Blues
TTITLE11=Ten Years of This
TTITLE12=Quits
TTITLE13=Whiskey Trip
TTITLE14=Hank Western
TTITLE15=Little Junior
EXTD=
EXTT0=
EXTT1=
EXTT2=
EXTT3=
EXTT4=
EXTT5=
EXTT6=
EXTT7=
EXTT8=
EXTT9=
EXTT10=
EXTT11=
EXTT12=
EXTT13=
EXTT14=
EXTT15=
PLAYORDER=
